<?xml version="1.0" encoding="UTF-8" standalone="no"?>
<svg
   xmlns:dc="http://purl.org/dc/elements/1.1/"
   xmlns:cc="http://creativecommons.org/ns#"
   xmlns:rdf="http://www.w3.org/1999/02/22-rdf-syntax-ns#"
   xmlns:svg="http://www.w3.org/2000/svg"
   xmlns="http://www.w3.org/2000/svg"
   xmlns:sodipodi="http://sodipodi.sourceforge.net/DTD/sodipodi-0.dtd"
   xmlns:inkscape="http://www.inkscape.org/namespaces/inkscape"
   fill="#FFFFFF"
   width="24"
   height="24"
   viewBox="0 0 24 24"
   version="1.1"
   id="svg26"
   sodipodi:docname="outline-add_a_photo-24px.svg"
   inkscape:export-filename="C:\Users\bboyc\OneDrive\Desktop\Projects\Vanilla\textract\public\images\outline-add_a_photo-24px.png"
   inkscape:export-xdpi="96"
   inkscape:export-ydpi="96"
   inkscape:version="0.92.3 (2405546, 2018-03-11)">
  <metadata
     id="metadata32">
    <rdf:RDF>
      <cc:Work
         rdf:about="">
        <dc:format>image/svg+xml</dc:format>
        <dc:type
           rdf:resource="http://purl.org/dc/dcmitype/StillImage" />
      </cc:Work>
    </rdf:RDF>
  </metadata>
  <defs
     id="defs30" />
  <sodipodi:namedview
     pagecolor="#ffffff"
     bordercolor="#666666"
     borderopacity="1"
     objecttolerance="10"
     gridtolerance="10"
     guidetolerance="10"
     inkscape:pageopacity="0"
     inkscape:pageshadow="2"
     inkscape:window-width="2560"
     inkscape:window-height="1406"
     id="namedview28"
     showgrid="false"
     inkscape:zoom="40.157773"
     inkscape:cx="8.7609692"
     inkscape:cy="14.387285"
     inkscape:window-x="-11"
     inkscape:window-y="-11"
     inkscape:window-maximized="1"
     inkscape:current-layer="svg26" />
  <path
     fill="none"
     d="M0 0h24v24H0z"
     id="path22" />
  <g
     id="g3783"
     transform="matrix(0.41666667,0,0,0.41666667,4.5098795,3.9619251)"
     style="fill:#ffffff">
    <path
       id="path3769"
       d="M 0,0 H 24 V 24 H 0 Z"
       inkscape:connector-curvature="0"
       style="fill:none" />
    <path
       id="path3771"
       d="m 2.5,4 v 3 h 5 v 12 h 3 V 7 h 5 V 4 Z m 19,5 h -9 v 3 h 3 v 7 h 3 v -7 h 3 z"
       inkscape:connector-curvature="0" />
  </g>
  <g
     id="g3799"
     style="fill:#ffffff">
    <path
       id="path3785"
       d="M 0,0 H 24 V 24 H 0 Z"
       inkscape:connector-curvature="0"
       style="fill:none" />
    <path
       id="path3787"
       d="M 19,3 H 5 C 3.9,3 3,3.9 3,5 v 14 c 0,1.1 0.9,2 2,2 h 14 c 1.1,0 2,-0.9 2,-2 V 5 C 21,3.9 20.1,3 19,3 Z m 0,16 H 5 V 5 H 19 Z M 13.96,12.29 11.21,15.83 9.25,13.47 6.5,17 h 11 z"
       inkscape:connector-curvature="0" />
  </g>
</svg>
